<svg width="680" height="720" viewBox="0 0 680 720" xmlns="http://www.w3.org/2000/svg">
<title>AWS Multi-Account Organization Bootstrap Architecture</title>
<rect width="680" height="720" fill="#ffffff"/>
<defs>
  <style>
    text { font-family: -apple-system, BlinkMacSystemFont, "Segoe UI", sans-serif; fill: #1a1a1a; }
    .th { font-size: 13px; font-weight: 600; }
    .ts { font-size: 11px; font-weight: 400; fill: #6b7280; }
  </style>
</defs>
<rect x="220" y="18" width="240" height="52" rx="10" fill="#f5f5f4" stroke="#a8a29e" stroke-width="0.5"/>
<text class="th" x="340" y="39" text-anchor="middle">Management account</text>
<text class="ts" x="340" y="57" text-anchor="middle">Root — SCPs attached here</text>
<line x1="340" y1="70" x2="340" y2="100" stroke="#d1d5db" stroke-width="0.5"/>
<rect x="140" y="100" width="400" height="40" rx="8" fill="#fef2f2" stroke="#fca5a5" stroke-width="0.5"/>
<text class="th" x="340" y="116" text-anchor="middle">8 Service Control Policies (SCPs)</text>
<text class="ts" x="340" y="132" text-anchor="middle">Region · CloudTrail · GuardDuty · S3 · Root · Leave org · IMDSv2 · Encryption</text>
<line x1="340" y1="140" x2="340" y2="160" stroke="#d1d5db" stroke-width="0.5"/>
<line x1="90" y1="160" x2="590" y2="160" stroke="#d1d5db" stroke-width="0.5"/>
<line x1="90" y1="160" x2="90" y2="180" stroke="#d1d5db" stroke-width="0.5"/>
<line x1="257" y1="160" x2="257" y2="180" stroke="#d1d5db" stroke-width="0.5"/>
<line x1="424" y1="160" x2="424" y2="180" stroke="#d1d5db" stroke-width="0.5"/>
<line x1="590" y1="160" x2="590" y2="180" stroke="#d1d5db" stroke-width="0.5"/>
<rect x="30" y="180" width="122" height="36" rx="8" fill="#fffbeb" stroke="#fcd34d" stroke-width="0.5"/>
<text class="th" x="91" y="202" text-anchor="middle">Security OU</text>
<rect x="196" y="180" width="122" height="36" rx="8" fill="#eff6ff" stroke="#93c5fd" stroke-width="0.5"/>
<text class="th" x="257" y="202" text-anchor="middle">Logging OU</text>
<rect x="363" y="180" width="122" height="36" rx="8" fill="#f0fdfa" stroke="#5eead4" stroke-width="0.5"/>
<text class="th" x="424" y="202" text-anchor="middle">Infra OU</text>
<rect x="529" y="180" width="122" height="36" rx="8" fill="#f5f3ff" stroke="#c4b5fd" stroke-width="0.5"/>
<text class="th" x="590" y="202" text-anchor="middle">Workloads OU</text>
<line x1="91" y1="216" x2="91" y2="244" stroke="#d1d5db" stroke-width="0.5"/>
<line x1="257" y1="216" x2="257" y2="244" stroke="#d1d5db" stroke-width="0.5"/>
<line x1="424" y1="216" x2="424" y2="244" stroke="#d1d5db" stroke-width="0.5"/>
<line x1="590" y1="216" x2="590" y2="244" stroke="#d1d5db" stroke-width="0.5"/>
<rect x="30" y="244" width="122" height="56" rx="8" fill="#fffbeb" stroke="#fcd34d" stroke-width="0.5"/>
<text class="th" x="91" y="264" text-anchor="middle">security-account</text>
<text class="ts" x="91" y="282" text-anchor="middle">Delegated admin</text>
<rect x="196" y="244" width="122" height="56" rx="8" fill="#eff6ff" stroke="#93c5fd" stroke-width="0.5"/>
<text class="th" x="257" y="264" text-anchor="middle">logging-account</text>
<text class="ts" x="257" y="282" text-anchor="middle">Centralized logs</text>
<rect x="363" y="244" width="122" height="56" rx="8" fill="#f0fdfa" stroke="#5eead4" stroke-width="0.5"/>
<text class="th" x="424" y="264" text-anchor="middle">shared-services</text>
<text class="ts" x="424" y="282" text-anchor="middle">CI/CD · networking</text>
<rect x="529" y="244" width="122" height="56" rx="8" fill="#f5f3ff" stroke="#c4b5fd" stroke-width="0.5"/>
<text class="th" x="590" y="264" text-anchor="middle">production</text>
<text class="ts" x="590" y="282" text-anchor="middle">Workload account</text>
<line x1="40" y1="326" x2="640" y2="326" stroke="#e5e7eb" stroke-width="0.5" stroke-dasharray="4 4"/>
<text class="ts" x="91" y="346" text-anchor="middle">Security services</text>
<text class="ts" x="257" y="346" text-anchor="middle">Logging services</text>
<text class="ts" x="424" y="346" text-anchor="middle">Deployment tools</text>
<text class="ts" x="590" y="346" text-anchor="middle">Cost (~$23/mo idle)</text>
<rect x="30" y="358" width="122" height="46" rx="8" fill="#fffbeb" stroke="#fcd34d" stroke-width="0.5"/>
<text class="th" x="91" y="377" text-anchor="middle">GuardDuty</text>
<text class="ts" x="91" y="393" text-anchor="middle">Org delegated admin</text>
<rect x="30" y="416" width="122" height="46" rx="8" fill="#fffbeb" stroke="#fcd34d" stroke-width="0.5"/>
<text class="th" x="91" y="435" text-anchor="middle">Security Hub</text>
<text class="ts" x="91" y="451" text-anchor="middle">FSBP + CIS 1.4.0</text>
<rect x="30" y="474" width="122" height="46" rx="8" fill="#fffbeb" stroke="#fcd34d" stroke-width="0.5"/>
<text class="th" x="91" y="493" text-anchor="middle">Macie</text>
<text class="ts" x="91" y="509" text-anchor="middle">PII discovery</text>
<rect x="30" y="532" width="122" height="46" rx="8" fill="#fffbeb" stroke="#fcd34d" stroke-width="0.5"/>
<text class="th" x="91" y="551" text-anchor="middle">Access Analyzer</text>
<text class="ts" x="91" y="567" text-anchor="middle">Org-level</text>
<rect x="196" y="358" width="122" height="46" rx="8" fill="#eff6ff" stroke="#93c5fd" stroke-width="0.5"/>
<text class="th" x="257" y="377" text-anchor="middle">CloudTrail</text>
<text class="ts" x="257" y="393" text-anchor="middle">Org trail · 7yr · KMS</text>
<rect x="196" y="416" width="122" height="46" rx="8" fill="#eff6ff" stroke="#93c5fd" stroke-width="0.5"/>
<text class="th" x="257" y="435" text-anchor="middle">Config aggregator</text>
<text class="ts" x="257" y="451" text-anchor="middle">9 managed rules</text>
<rect x="196" y="474" width="122" height="46" rx="8" fill="#eff6ff" stroke="#93c5fd" stroke-width="0.5"/>
<text class="th" x="257" y="493" text-anchor="middle">VPC Flow Logs</text>
<text class="ts" x="257" y="509" text-anchor="middle">Cross-account S3</text>
<rect x="196" y="532" width="122" height="46" rx="8" fill="#f0fdf4" stroke="#86efac" stroke-width="0.5"/>
<text class="th" x="257" y="551" text-anchor="middle">Proof-gate</text>
<text class="ts" x="257" y="567" text-anchor="middle">NT-01 to NT-08 verified</text>
<rect x="363" y="358" width="122" height="46" rx="8" fill="#f0fdfa" stroke="#5eead4" stroke-width="0.5"/>
<text class="th" x="424" y="377" text-anchor="middle">deploy.sh</text>
<text class="ts" x="424" y="393" text-anchor="middle">6-step apply</text>
<rect x="363" y="416" width="122" height="46" rx="8" fill="#f0fdfa" stroke="#5eead4" stroke-width="0.5"/>
<text class="th" x="424" y="435" text-anchor="middle">verify.sh</text>
<text class="ts" x="424" y="451" text-anchor="middle">8 negative tests</text>
<rect x="363" y="474" width="122" height="46" rx="8" fill="#f0fdfa" stroke="#5eead4" stroke-width="0.5"/>
<text class="th" x="424" y="493" text-anchor="middle">CF StackSets</text>
<text class="ts" x="424" y="509" text-anchor="middle">Cross-account IAM</text>
<rect x="529" y="358" width="122" height="46" rx="8" fill="#f5f3ff" stroke="#c4b5fd" stroke-width="0.5"/>
<text class="th" x="590" y="377" text-anchor="middle">Config rules</text>
<text class="ts" x="590" y="393" text-anchor="middle">~$14/mo</text>
<rect x="529" y="416" width="122" height="46" rx="8" fill="#f5f3ff" stroke="#c4b5fd" stroke-width="0.5"/>
<text class="th" x="590" y="435" text-anchor="middle">GuardDuty</text>
<text class="ts" x="590" y="451" text-anchor="middle">~$4/mo</text>
<rect x="529" y="474" width="122" height="46" rx="8" fill="#f5f3ff" stroke="#c4b5fd" stroke-width="0.5"/>
<text class="th" x="590" y="493" text-anchor="middle">CloudTrail + KMS</text>
<text class="ts" x="590" y="509" text-anchor="middle">~$4/mo</text>
</svg>
